<?xml version="1.0" encoding="UTF-8" standalone="no"?>
<!-- Created with Inkscape (http://www.inkscape.org/) -->

<svg
   version="1.1"
   id="svg1"
   width="600"
   height="600"
   viewBox="0 0 600 600"
   sodipodi:docname="citadel_logo_dark.png"
   xmlns:inkscape="http://www.inkscape.org/namespaces/inkscape"
   xmlns:sodipodi="http://sodipodi.sourceforge.net/DTD/sodipodi-0.dtd"
   xmlns:xlink="http://www.w3.org/1999/xlink"
   xmlns="http://www.w3.org/2000/svg"
   xmlns:svg="http://www.w3.org/2000/svg">
  <defs
     id="defs1" />
  <sodipodi:namedview
     id="namedview1"
     pagecolor="#ffffff"
     bordercolor="#000000"
     borderopacity="0.25"
     inkscape:showpageshadow="2"
     inkscape:pageopacity="0.0"
     inkscape:pagecheckerboard="0"
     inkscape:deskcolor="#d1d1d1"
     showgrid="false" />
  <g
     inkscape:groupmode="layer"
     inkscape:label="Image"
     id="g1">
    <path
       style="fill:#ffffff"
       d="m 295,573.25165 c -1.925,-2.57759 -4.24479,-5.44596 -5.15509,-6.37418 -0.91031,-0.92821 -7.11211,-8.93535 -13.78179,-17.79364 -10.38347,-13.79073 -12.44556,-16.03343 -14.34491,-15.60133 -2.46804,0.56148 -35.79316,7.10097 -68.71821,13.48477 -19.3152,3.745 -32.56956,6.34495 -38.63202,7.57799 -1.81606,0.36936 -2.43428,-0.41696 -4.17149,-5.30582 -1.98675,-5.5911 -7.24111,-20.71952 -14.74788,-42.46228 -2.31512,-6.70558 -4.31024,-10.90793 -5.32535,-11.21687 -0.89279,-0.27172 -8.37326,-1.67803 -16.62326,-3.12513 -18.177478,-3.18844 -43.767944,-7.73307 -56,-9.94507 -4.95,-0.89514 -13.95,-2.46687 -20,-3.49274 -6.05,-1.02587 -13.25,-2.31572 -16,-2.86633 -2.75,-0.55061 -6.710012,-1.27995 -8.800027,-1.62076 C 9.3664647,473.96668 8.9782009,473.62109 9.5373727,471.6953 10.454274,468.53749 28.828938,411.54587 31.040599,405 c 1.022061,-3.025 5.972927,-18.325 11.001925,-34 5.028997,-15.675 10.255463,-31.80878 11.614367,-35.85285 1.358904,-4.04407 2.329519,-7.45588 2.156922,-7.58179 -0.172597,-0.12591 -4.082182,-3.11713 -8.687967,-6.64714 C 42.520061,317.3882 37.279034,313.375 35.479119,312 25.298148,304.2225 22.083988,301.34535 22.073516,300 c -0.0064,-0.825 2.097256,-3.075 4.674838,-5 2.577582,-1.925 5.420912,-4.21974 6.318512,-5.09943 0.897599,-0.87969 6.178082,-5.04222 11.734405,-9.25007 l 10.102406,-7.65064 -8.033673,-23.24993 C 30.46677,202.27799 28.78263,197.38118 27.008263,192 26.010814,188.975 21.750998,176.6 17.542005,164.5 7.039779,134.30823 6,131.20717 6,130.07686 c 0,-0.54243 1.6875,-1.25731 3.75,-1.58863 2.0625,-0.33132 6.675,-1.23247 10.25,-2.00256 3.575,-0.77008 16.175,-3.25015 28,-5.51125 11.825,-2.26111 28.025,-5.38822 36,-6.94914 7.975,-1.56093 20.8,-4.06095 28.5,-5.55561 8.39592,-1.62975 14.47817,-3.31454 15.19454,-4.20891 0.657,-0.82024 3.96016,-10.101957 7.34036,-20.626049 C 145.61333,50.699209 147.23162,46 147.9953,46 c 0.40849,0 4.73917,0.706931 9.62371,1.570957 4.88454,0.864027 11.13099,1.963375 13.88099,2.442997 2.75,0.479622 9.05,1.604622 14,2.5 4.95,0.895378 11.25,2.020378 14,2.5 2.75,0.479622 9.05,1.599154 14,2.487848 10.84631,1.947283 34.88703,6.207001 42.5,7.530471 3.025,0.525879 6.24046,0.958749 7.14546,0.961935 0.93569,0.0033 5.24917,-4.825352 10,-11.194308 4.595,-6.160055 9.70454,-12.863581 11.35454,-14.896725 1.65,-2.033143 5.475,-6.869998 8.5,-10.748565 3.025,-3.878568 6.175,-7.061128 7,-7.072355 0.825,-0.01123 3.075,2.079919 5,4.646991 1.925,2.567072 4.52476,5.782095 5.77724,7.144496 1.25248,1.3624 7.0916,8.92448 12.97582,16.804623 l 10.69858,14.327533 3.52418,-0.60233 C 339.91412,64.072286 350.275,62.08315 361,59.983266 c 10.725,-2.099883 32.55,-6.346286 48.5,-9.436449 15.95,-3.090164 30.91882,-5.999151 33.26405,-6.464417 2.34523,-0.465266 4.43384,-0.561642 4.64135,-0.214169 0.20751,0.347473 3.36573,9.406769 7.01827,20.131769 3.65254,10.725 8.1015,23.755041 9.88657,28.955647 l 3.24558,9.455643 9.97209,1.81603 c 5.48465,0.99881 17.84709,3.18582 27.47209,4.86001 9.625,1.6742 19.8625,3.46444 22.75,3.97833 2.8875,0.51389 7.6125,1.35241 10.5,1.86338 2.8875,0.51098 9.1875,1.63598 14,2.5 4.8125,0.86403 12.6875,2.27789 17.5,3.14192 4.8125,0.86402 11.1739,1.97543 14.13645,2.46978 2.96254,0.49435 5.63635,1.14873 5.9418,1.45417 0.30544,0.30545 0.0574,2.00655 -0.55116,3.78022 C 588.6685,130.04881 583.80932,145 578.47891,161.5 573.1485,178 567.07538,196.675 564.98308,203 c -14.62275,44.20458 -22.07846,68.2908 -21.34099,68.94366 0.47185,0.41771 5.53817,4.26903 11.25848,8.55848 5.72031,4.28945 11.13496,8.51874 12.03256,9.39843 0.8976,0.87969 3.74093,3.17443 6.31852,5.09943 2.57758,1.925 4.68125,4.175 4.67483,5 -0.0105,1.34535 -3.22463,4.2225 -13.4056,12 -17.04216,13.01894 -19.66594,15.32263 -19.20431,16.86152 0.27032,0.90117 5.07946,14.91348 10.68697,31.13848 5.60751,16.225 11.00547,31.975 11.99549,35 0.99001,3.025 6.3766,18.775 11.97021,35 10.9468,31.75263 13.09185,38.27225 12.71582,38.64828 -0.13288,0.13288 -5.17888,1.1908 -11.21333,2.35094 -6.03445,1.16014 -13.89673,2.74067 -17.47173,3.5123 -3.575,0.77163 -16.175,3.25296 -28,5.51406 -11.825,2.26111 -28.025,5.388 -36,6.94865 -7.975,1.56066 -17.55357,3.41566 -21.2857,4.12222 -3.73214,0.70656 -7.21294,1.79945 -7.73513,2.42864 -0.85505,1.03029 -10.16934,28.96746 -16.74504,50.22491 -2.82055,9.11807 -2.50856,8.91999 -11.34764,7.20472 -6.91351,-1.3416 -31.73663,-5.77894 -38.88649,-6.95128 -3.025,-0.496 -13.15,-2.26884 -22.5,-3.93966 -36.80953,-6.57776 -44.91732,-7.97697 -45.04887,-7.7744 -0.19954,0.30726 -21.50667,28.40584 -24.45113,32.24469 -7.93572,10.34623 -10.65582,13.38195 -12,13.39241 -0.825,0.006 -3.075,-2.09725 -5,-4.67483 z m 16.42231,-29.47489 10.64807,-14.22323 -10.22044,-1.91407 -10.22044,-1.91407 -11.018,2.17388 c -6.05989,1.19564 -11.1871,2.343 -11.39379,2.54969 C 278.6874,530.97927 299.07929,558 300.00981,558 c 0.42044,0 5.55607,-6.40046 11.4125,-14.22324 z m -145.11513,-2.72964 c 2.30605,-0.52408 13.86782,-2.81768 25.69282,-5.09687 11.825,-2.2792 29.15,-5.63254 38.5,-7.45186 9.35,-1.81932 18.67171,-3.59316 20.71492,-3.94185 4.81445,-0.82165 5.31797,-1.8255 2.5372,-5.05832 -2.29698,-2.67041 -6.83645,-3.74888 -35.75212,-8.49387 -3.025,-0.49639 -12.925,-2.23136 -22,-3.85548 -9.075,-1.62411 -23.25,-4.13693 -31.5,-5.58403 -8.25,-1.4471 -15.7875,-2.87151 -16.75,-3.16535 -0.9625,-0.29385 -1.75,-0.36489 -1.75,-0.15787 0,0.41779 12.74462,37.94468 14.09679,41.50838 0.98443,2.59453 0.73282,2.54198 6.21039,1.29712 z M 449.3969,517.95321 c 3.76357,-11.57574 6.57951,-21.31013 6.25765,-21.63199 -0.32185,-0.32186 -6.5633,0.60374 -13.86987,2.05689 -7.30657,1.45314 -23.63468,4.65235 -36.28468,7.10936 -12.65,2.457 -30.425,5.91292 -39.5,7.67982 -16.03549,3.1221 -21,5.0743 -21,8.25786 0,0.59209 4.6125,1.86151 10.25,2.82094 5.6375,0.95942 17.9,3.11946 27.25,4.80007 9.35,1.68061 19.475,3.46346 22.5,3.96189 3.025,0.49843 11.575,2.01227 19,3.36408 20.61013,3.75234 17.44125,6.05055 25.3969,-18.41892 z m -129.38643,-6.95525 c 8.48485,-1.65112 16.25091,-3.26353 17.25791,-3.58314 1.007,-0.31961 11.88772,-13.97497 24.17938,-30.34524 C 382.00207,449.69494 387.65443,443 390.21178,443 c 1.47046,0 6.78822,5.68294 6.78822,7.25437 0,0.77451 -8.54961,12.80952 -18.99912,26.74446 -10.44952,13.93494 -18.8178,25.51759 -18.59617,25.73921 0.47784,0.47784 30.55461,-5.22284 84.59529,-16.03399 l 16.5,-3.30092 3.15008,-9.45156 c 6.32686,-18.98329 34.42986,-105.78592 35.91312,-110.92599 l 0.71403,-2.47441 -3.38862,2.55466 C 465.61378,386.68373 451.42246,397 450.26295,397 448.62775,397 443,391.66256 443,390.11172 c 0,-2.53441 7.73387,-9.02324 35.29346,-29.61172 l 29.44903,-22 6.65178,-20.5 c 3.65847,-11.275 6.64141,-21.17468 6.62875,-21.99929 -0.0127,-0.8246 -2.35953,-8.4213 -5.21527,-16.88156 l -5.19224,-15.38227 -30.05776,-22.4981 C 448.39844,217.16766 443,212.64179 443,209.7516 443,207.35499 447.37708,203 449.78583,203 c 1.03221,0 13.27859,8.55 27.21417,19 13.93558,10.45 25.44112,19 25.56786,19 0.12674,0 -2.24448,-7.0875 -5.26937,-15.75 -3.02489,-8.6625 -6.30972,-18.225 -7.29964,-21.25 -0.98991,-3.025 -6.37064,-18.775 -11.95716,-35 -5.58653,-16.225 -12.14392,-35.30011 -14.57197,-42.38913 -2.42806,-7.08903 -4.64595,-13.12043 -4.92864,-13.40312 -0.28269,-0.28269 -6.25758,-1.5172 -13.27753,-2.74334 C 438.2436,109.23826 424.4,106.80097 414.5,105.0482 c -9.9,-1.75276 -20.25,-3.57897 -23,-4.05824 -2.75,-0.47927 -6.575,-1.159141 -8.5,-1.510825 -8.80303,-1.608251 -18.83049,-3.389764 -22.30021,-3.961933 l -3.80021,-0.626668 20.05021,26.716256 C 387.9774,136.30073 397,149.17081 397,150.20698 397,152.65639 392.63455,157 390.17281,157 387.34205,157 382.70875,151.45301 359.5,120.27844 347.95,104.76419 337.825,91.846101 337,91.57157 c -2.19959,-0.73195 -23.20719,-4.440885 -32.67603,-5.769022 -7.68578,-1.078038 -9.18991,-0.95079 -25.08528,2.122201 l -16.90925,3.269001 -22.79485,30.42373 C 218.34288,149.90153 212.38681,157 209.84635,157 c -2.00296,0 -7.06717,-6.04759 -6.59052,-7.87028 0.25994,-0.99403 9.36203,-13.64203 20.22685,-28.10666 15.16625,-20.19123 19.20415,-26.164347 17.38577,-25.71812 -2.88009,0.706772 -14.78054,3.059072 -46.36845,9.16541 -13.2,2.55172 -29.4,5.70502 -36,7.00733 -6.6,1.30231 -13.88659,2.66277 -16.19243,3.02325 -2.30584,0.36048 -4.58774,1.18274 -5.07089,1.82724 -0.48315,0.64451 -2.03008,4.77183 -3.43763,9.17183 -6.89637,21.55806 -18.40908,57.13188 -21.52131,66.5 -1.91854,5.775 -5.27763,16.125 -7.46464,23 -2.18701,6.875 -5.022293,15.78361 -6.300638,19.79692 l -2.324265,7.29691 3.155902,-2.37767 C 134.71919,213.0644 148.66116,203 150.20612,203 c 2.41533,0 6.79388,4.35131 6.79388,6.7516 0,2.8903 -5.39847,7.41609 -37.56637,31.49364 C 85.489877,266.65202 89.607911,261.80969 82.081607,285.1669 79.836723,292.1337 78,298.66578 78,299.68264 c 0,2.73874 11.865599,36.62679 13.283173,37.93663 0.669255,0.61839 14.760597,11.26118 31.314107,23.65065 C 150.26257,381.97601 157,387.64399 157,390.21178 c 0,1.9602 -6.07635,7.00152 -7.87277,6.53174 -0.99539,-0.2603 -12.67172,-8.63408 -25.94738,-18.6084 C 109.90418,368.16081 98.835121,360 98.581937,360 c -0.253185,0 3.160723,10.4625 7.586463,23.25 4.42574,12.7875 8.85365,25.725 9.8398,28.75 0.98615,3.025 5.0147,14.725 8.95234,26 3.93764,11.275 9.21994,26.575 11.73844,34 2.51849,7.425 4.72073,13.66671 4.89386,13.87048 0.35891,0.42241 4.0619,1.14352 24.40716,4.753 7.975,1.41485 21.925,3.90128 31,5.52539 9.075,1.62412 18.975,3.35548 22,3.84748 3.025,0.49199 9.29417,1.58741 13.93149,2.43427 4.63732,0.84685 8.54234,1.42889 8.67782,1.2934 0.13548,-0.13548 -8.49619,-11.9046 -19.18149,-26.15359 C 211.74252,463.32143 203,450.8185 203,449.78613 203,447.37713 207.35486,443 209.7516,443 c 2.867,0 7.40537,5.3854 30.17055,35.80146 11.65037,15.56581 21.72145,28.49196 22.38017,28.72478 0.65872,0.23282 6.59768,1.37444 13.19768,2.53694 6.6,1.16249 14.025,2.47091 16.5,2.9076 7.92275,1.39789 12.258,1.09255 28.01047,-1.97282 z M 171,343.43992 c -15.21388,-3.27935 -28.07364,-12.7458 -34.18131,-25.16188 -3.14912,-6.40174 -3.31869,-7.30931 -3.31869,-17.76225 0,-10.08513 0.24064,-11.50586 2.84839,-16.81656 5.1468,-10.4815 15.70525,-18.77429 29.65161,-23.28888 4.75945,-1.54069 10.44824,-1.83303 42.25,-2.17118 20.2125,-0.21493 36.73285,-0.0192 36.71189,0.43503 -0.021,0.45419 -3.7581,5.5508 -8.30474,11.3258 l -8.26663,10.5 -26.44526,0.5 c -28.74522,0.54349 -29.66306,0.71712 -36.28454,6.86416 -10.48339,9.73225 -7.38994,25.61896 6.23232,32.00665 L 177.5,322.5 l 33.79068,0.5 33.79068,0.5 -8.25968,10.75 L 228.562,345 203.031,344.9205 C 185.16903,344.86488 175.54752,344.42014 171,343.43992 Z M 284,313 v -32 h -20.10699 c -16.66352,0 -20.0165,-0.23581 -19.5786,-1.37696 0.29062,-0.75733 4.04213,-5.93233 8.33671,-11.5 L 260.45943,258 h 49.31986 49.31986 l -8.79282,11.5 -8.79283,11.5 H 326.25675 311 v 32 32 H 297.5 284 Z m 73,5 v -27 h 13.5 13.5 v 16.10606 16.10606 l 19.25,-0.45817 c 22.56782,-0.53713 26.42863,-1.5119 32.62849,-8.23796 8.88007,-9.63373 5.84427,-24.17816 -6.35806,-30.46135 L 424.55915,281.5 391.27958,281.21167 C 372.97581,281.05309 358,280.65256 358,280.32159 c 0,-0.33097 3.67819,-5.53045 8.17375,-11.55441 l 8.17374,-10.95264 27.07626,0.43211 c 22.34273,0.35657 28.03777,0.74208 32.57625,2.20517 19.03632,6.1368 30.07966,17.39551 33.09048,33.73584 3.27173,17.75634 -6.73598,35.99359 -24.33884,44.35315 -12.23931,5.81243 -17.30485,6.42234 -53.50164,6.44183 L 357,345 Z M 122.58779,469.49141 C 120.15792,462.34613 113.81071,443.9 108.48288,428.5 103.15505,413.1 97.985648,398.025 96.995318,395 c -3.053355,-9.32659 -17.006773,-49.35034 -17.25811,-49.50287 -0.130464,-0.0792 -3.049893,-2.27487 -6.487619,-4.87931 -3.437726,-2.60444 -6.667396,-4.47764 -7.177044,-4.16266 -0.509649,0.31499 -1.376449,2.02893 -1.926222,3.80877 -2.042483,6.61235 -15.50914,48.63201 -19.144495,59.73607 -2.070739,6.325 -7.214894,22.3 -11.431453,35.5 -4.21656,13.2 -8.116395,25.08096 -8.666298,26.40213 -0.549904,1.32116 -0.640782,2.74663 -0.201951,3.16769 0.438831,0.42106 6.422874,1.72443 13.297874,2.89637 6.875,1.17194 16.325,2.81048 21,3.6412 4.675,0.83072 16.15,2.87056 25.5,4.53297 37.78618,6.71832 42.01002,7.40662 42.25286,6.88529 0.13908,-0.29855 -1.73521,-6.38896 -4.16507,-13.53424 z M 506.5,474.46973 c 13.2,-2.53044 32.86295,-6.37131 43.69545,-8.53526 10.8325,-2.16396 20.3657,-3.93447 21.1849,-3.93447 0.8192,0 2.6197,-0.42972 4.00111,-0.95493 l 2.51166,-0.95493 -4.88557,-14.29507 C 570.32049,437.93278 563.77597,418.9 558.46418,403.5 c -5.3118,-15.4 -10.94247,-31.825 -12.51259,-36.5 -7.8973,-23.51396 -10.9454,-31.47611 -11.95598,-31.23109 -0.61,0.1479 -4.43212,2.77003 -8.49361,5.82695 l -7.38452,5.55804 -7.67492,23.67305 C 506.22135,383.84713 501.05668,399.675 498.96551,406 491.1717,429.57332 475,479.6477 475,480.20731 c 0,0.31901 1.6875,0.19374 3.75,-0.27838 2.0625,-0.47213 14.55,-2.92877 27.75,-5.4592 z M 62.317378,308.66211 c 2.169918,-6.88378 2.135839,-7.92933 -0.503387,-15.44384 -1.449755,-4.12779 -2.646278,-6.11287 -3.489541,-5.78928 C 56.186679,288.24933 42,299.1862 42,300.01392 c 0,0.77256 16.998397,13.90453 18.067378,13.9578 0.312058,0.0156 1.324558,-2.37377 2.25,-5.30961 z M 552.25,305.06048 c 3.1625,-2.36543 5.75,-4.64188 5.75,-5.05878 0,-0.83888 -19.01794,-15.36438 -19.42179,-14.83395 -1.12933,1.48328 -3.57917,9.41631 -3.58303,11.60249 -0.003,1.50137 1.18475,5.99808 2.63867,9.99269 l 2.64347,7.26292 3.11134,-2.3323 c 1.71124,-1.28277 5.69884,-4.26765 8.86134,-6.63307 z M 74.157024,258.61253 79.814049,254.1167 87.971904,228.80835 C 92.458724,214.88876 96.973489,201.025 98.004715,198 c 1.031225,-3.025 6.228055,-19 11.548495,-35.5 5.32045,-16.5 10.58873,-32.8213 11.70728,-36.26955 1.11855,-3.44826 1.74644,-6.55685 1.39531,-6.90798 -0.35113,-0.35114 -4.35483,0.0796 -8.89711,0.95723 -4.54228,0.87761 -19.05869,3.67773 -32.25869,6.22249 -40.793999,7.86446 -58.845549,11.51003 -59.314204,11.97868 -0.247501,0.2475 1.589055,6.20306 4.081235,13.23457 2.49218,7.03151 7.992693,22.90956 12.223361,35.28456 9.291393,27.17797 15.00446,43.69918 21.839812,63.15699 5.784043,16.4651 4.63369,15.76162 13.82682,8.45554 z M 533.43872,260.25 c 0.59288,-2.48716 14.48687,-45.48723 28.03028,-86.75 9.69452,-29.53632 12.80334,-39.561 12.39513,-39.9692 -0.22314,-0.22314 -6.92135,-1.54537 -14.88492,-2.93829 C 538.6707,127.04032 512.96588,122.47259 496.5,119.49 c -20.69628,-3.74888 -23.50112,-4.03293 -23.49411,-2.37929 0.003,0.76411 2.74164,9.26429 6.08532,18.88929 9.88763,28.4621 15.96891,46.13957 17.88869,52 2.79872,8.54356 21.71942,63.3164 22.45356,65 0.63256,1.45064 11.40811,9.9026 12.70813,9.96782 0.35288,0.0177 0.93658,-1.20532 1.29713,-2.71782 z M 163,98.585239 c 9.625,-1.90092 28.3,-5.53642 41.5,-8.07889 47.88269,-9.222751 48.95879,-9.462416 50.23967,-11.189157 0.68181,-0.919155 1.04735,-1.863505 0.8123,-2.098556 -0.23505,-0.23505 -6.4179,-1.477102 -13.73967,-2.760115 C 224.4254,71.411768 206.59231,68.270412 196,66.388538 191.325,65.557957 180.3705,63.628562 171.65667,62.100993 l -15.84334,-2.777398 -1.3626,3.088203 C 152.5386,66.745442 142,100.02614 142,101.73095 c 0,0.87856 0.65479,1.19928 1.75,0.85717 0.9625,-0.30067 9.625,-2.10196 19.25,-4.002881 z m 291,1.037453 c 0,-0.20752 -2.06967,-6.39502 -4.59926,-13.75 C 446.87114,78.517711 443.69255,69.0125 442.3372,64.75 440.98185,60.4875 439.47367,57 438.98568,57 c -0.48798,0 -3.04689,0.432466 -5.68646,0.961035 -2.63957,0.52857 -14.47422,2.816938 -26.29922,5.085264 -38.78108,7.439164 -61.31133,12.028547 -62.60511,12.752587 -0.98891,0.55342 -0.8878,1.221915 0.45382,3.000539 1.80324,2.390618 1.16196,2.235464 30.15129,7.294846 6.325,1.103875 15.325,2.687183 20,3.518463 14.7421,2.62135 35.14838,6.214317 45,7.923224 5.225,0.906352 9.6875,1.831542 9.91667,2.055978 C 450.441,100.10545 454,100.13225 454,99.622692 Z M 309.765,70.098845 c 5.09574,-0.987527 9.4506,-1.981113 9.67746,-2.207969 0.53219,-0.532197 -17.96788,-25.232681 -19.20838,-25.646181 -0.51576,-0.171921 -5.50402,5.769218 -11.08503,13.20253 -9.29247,12.376585 -9.95782,13.552449 -7.89817,13.95831 1.23702,0.243758 4.27412,0.873191 6.74912,1.39874 6.74337,1.431906 11.53799,1.276507 21.765,-0.70543 z"
       id="path1" />
  </g>
</svg>
